# Wavefront OBJ file automatically generated by Tiled2Unity

# Vertices (Count = 384)
v -2176 -1920 0
v -2304 -1920 0
v -2304 -1792 0
v -2176 -1792 0
v -2432 -1920 0
v -2432 -1792 0
v -2560 -1920 0
v -2560 -1792 0
v -2688 -1920 0
v -2688 -1792 0
v -2816 -1920 0
v -2816 -1792 0
v -2176 -2048 0
v -2304 -2048 0
v -2432 -2048 0
v -2560 -2048 0
v -2688 -2048 0
v -2816 -2048 0
v -2176 -2176 0
v -2304 -2176 0
v -2432 -2176 0
v -2560 -2176 0
v -2688 -2176 0
v -2816 -2176 0
v -2176 -2304 0
v -2304 -2304 0
v -2432 -2304 0
v -2560 -2304 0
v -2688 -2304 0
v -2816 -2304 0
v -2176 -2432 0
v -2304 -2432 0
v -2432 -2432 0
v -2560 -2432 0
v -2688 -2432 0
v -2816 -2432 0
v -2176 -2560 0
v -2304 -2560 0
v -2432 -2560 0
v -2560 -2560 0
v -2688 -2560 0
v -2816 -2560 0
v -2176 -2688 0
v -2304 -2688 0
v -2432 -2688 0
v -2560 -2688 0
v -2688 -2688 0
v -2816 -2688 0
v -2176 -2816 0
v -2304 -2816 0
v -2432 -2816 0
v -2560 -2816 0
v -2688 -2816 0
v -2816 -2816 0
v -2176 -2944 0
v -2304 -2944 0
v -2432 -2944 0
v -2560 -2944 0
v -2688 -2944 0
v -2816 -2944 0
v -2176 -3072 0
v -2304 -3072 0
v -2432 -3072 0
v -2560 -3072 0
v -2688 -3072 0
v -2816 -3072 0
v -2176 -3200 0
v -2304 -3200 0
v -2432 -3200 0
v -2560 -3200 0
v -2688 -3200 0
v -2816 -3200 0
v -1792 -1920 0
v -1920 -1920 0
v -1920 -1792 0
v -1792 -1792 0
v -2048 -1920 0
v -2048 -1792 0
v -2944 -1920 0
v -2944 -1792 0
v -3072 -1920 0
v -3072 -1792 0
v -3200 -1920 0
v -3200 -1792 0
v -3328 -1920 0
v -3328 -1792 0
v -3456 -1920 0
v -3456 -1792 0
v -3584 -1920 0
v -3584 -1792 0
v -3712 -1920 0
v -3712 -1792 0
v -3840 -1920 0
v -3840 -1792 0
v -3968 -1920 0
v -3968 -1792 0
v -4096 -1920 0
v -4096 -1792 0
v -4224 -1920 0
v -4224 -1792 0
v -4352 -1920 0
v -4352 -1792 0
v 0 -2048 0
v -128 -2048 0
v -128 -1920 0
v 0 -1920 0
v -256 -2048 0
v -256 -1920 0
v -384 -2048 0
v -384 -1920 0
v -512 -2048 0
v -512 -1920 0
v -1664 -2048 0
v -1792 -2048 0
v -1664 -1920 0
v -1920 -2048 0
v -2048 -2048 0
v -2944 -2048 0
v -3072 -2048 0
v -3200 -2048 0
v -3328 -2048 0
v -3456 -2048 0
v -3584 -2048 0
v -3712 -2048 0
v -3840 -2048 0
v -3968 -2048 0
v -4096 -2048 0
v -4224 -2048 0
v -128 -2176 0
v -256 -2176 0
v -384 -2176 0
v -512 -2176 0
v -640 -2176 0
v -640 -2048 0
v -1536 -2176 0
v -1664 -2176 0
v -1536 -2048 0
v -1792 -2176 0
v -1920 -2176 0
v -2048 -2176 0
v -2944 -2176 0
v -3072 -2176 0
v -3200 -2176 0
v -3328 -2176 0
v -3456 -2176 0
v -3584 -2176 0
v -3712 -2176 0
v -3840 -2176 0
v -3968 -2176 0
v -4096 -2176 0
v -4224 -2176 0
v -128 -2304 0
v -256 -2304 0
v -384 -2304 0
v -512 -2304 0
v -640 -2304 0
v -768 -2304 0
v -768 -2176 0
v -1408 -2304 0
v -1536 -2304 0
v -1408 -2176 0
v -1664 -2304 0
v -1792 -2304 0
v -1920 -2304 0
v -2048 -2304 0
v -2944 -2304 0
v -3072 -2304 0
v -3200 -2304 0
v -3328 -2304 0
v -3456 -2304 0
v -3584 -2304 0
v -3712 -2304 0
v -3840 -2304 0
v -3968 -2304 0
v -4096 -2304 0
v -4224 -2304 0
v -128 -2432 0
v -256 -2432 0
v -384 -2432 0
v -512 -2432 0
v -640 -2432 0
v -768 -2432 0
v -896 -2432 0
v -896 -2304 0
v -1024 -2432 0
v -1024 -2304 0
v -1152 -2432 0
v -1152 -2304 0
v -1280 -2432 0
v -1280 -2304 0
v -1408 -2432 0
v -1536 -2432 0
v -1664 -2432 0
v -1792 -2432 0
v -1920 -2432 0
v -2048 -2432 0
v -2944 -2432 0
v -3072 -2432 0
v -3200 -2432 0
v -3328 -2432 0
v -3456 -2432 0
v -3584 -2432 0
v -3712 -2432 0
v -3840 -2432 0
v -3968 -2432 0
v -4096 -2432 0
v -4224 -2432 0
v -128 -2560 0
v -256 -2560 0
v -384 -2560 0
v -512 -2560 0
v -640 -2560 0
v -768 -2560 0
v -896 -2560 0
v -1024 -2560 0
v -1152 -2560 0
v -1280 -2560 0
v -1408 -2560 0
v -1536 -2560 0
v -1664 -2560 0
v -1792 -2560 0
v -1920 -2560 0
v -2048 -2560 0
v -2944 -2560 0
v -3072 -2560 0
v -3200 -2560 0
v -3328 -2560 0
v -3456 -2560 0
v -3584 -2560 0
v -3712 -2560 0
v -3840 -2560 0
v -3968 -2560 0
v -4096 -2560 0
v -4224 -2560 0
v -128 -2688 0
v -256 -2688 0
v -384 -2688 0
v -512 -2688 0
v -640 -2688 0
v -768 -2688 0
v -896 -2688 0
v -1024 -2688 0
v -1152 -2688 0
v -1280 -2688 0
v -1408 -2688 0
v -1536 -2688 0
v -1664 -2688 0
v -1792 -2688 0
v -1920 -2688 0
v -2048 -2688 0
v -2944 -2688 0
v -3072 -2688 0
v -3200 -2688 0
v -3328 -2688 0
v -3456 -2688 0
v -3584 -2688 0
v -3712 -2688 0
v -3840 -2688 0
v -3968 -2688 0
v -4096 -2688 0
v -4224 -2688 0
v -128 -2816 0
v -256 -2816 0
v -384 -2816 0
v -512 -2816 0
v -640 -2816 0
v -768 -2816 0
v -896 -2816 0
v -1024 -2816 0
v -1152 -2816 0
v -1280 -2816 0
v -1408 -2816 0
v -1536 -2816 0
v -1664 -2816 0
v -1792 -2816 0
v -1920 -2816 0
v -2048 -2816 0
v -2944 -2816 0
v -3072 -2816 0
v -3200 -2816 0
v -3328 -2816 0
v -3456 -2816 0
v -3584 -2816 0
v -3712 -2816 0
v -3840 -2816 0
v -3968 -2816 0
v -4096 -2816 0
v -4224 -2816 0
v -128 -2944 0
v -256 -2944 0
v -384 -2944 0
v -512 -2944 0
v -640 -2944 0
v -768 -2944 0
v -896 -2944 0
v -1024 -2944 0
v -1152 -2944 0
v -1280 -2944 0
v -1408 -2944 0
v -1536 -2944 0
v -1664 -2944 0
v -1792 -2944 0
v -1920 -2944 0
v -2048 -2944 0
v -2944 -2944 0
v -3072 -2944 0
v -3200 -2944 0
v -3328 -2944 0
v -3456 -2944 0
v -3584 -2944 0
v -3712 -2944 0
v -3840 -2944 0
v -3968 -2944 0
v -4096 -2944 0
v -4224 -2944 0
v -128 -3072 0
v -256 -3072 0
v -384 -3072 0
v -512 -3072 0
v -640 -3072 0
v -768 -3072 0
v -896 -3072 0
v -1024 -3072 0
v -1152 -3072 0
v -1280 -3072 0
v -1408 -3072 0
v -1536 -3072 0
v -1664 -3072 0
v -1792 -3072 0
v -1920 -3072 0
v -2048 -3072 0
v -2944 -3072 0
v -3072 -3072 0
v -3200 -3072 0
v -3328 -3072 0
v -3456 -3072 0
v -3584 -3072 0
v -3712 -3072 0
v -3840 -3072 0
v -3968 -3072 0
v -4096 -3072 0
v -4224 -3072 0
v -128 -3200 0
v -256 -3200 0
v -384 -3200 0
v -512 -3200 0
v -640 -3200 0
v -768 -3200 0
v -896 -3200 0
v -1024 -3200 0
v -1152 -3200 0
v -1280 -3200 0
v -1408 -3200 0
v -1536 -3200 0
v -1664 -3200 0
v -1792 -3200 0
v -1920 -3200 0
v -2048 -3200 0
v -2944 -3200 0
v -3072 -3200 0
v -3200 -3200 0
v -3328 -3200 0
v -3456 -3200 0
v -3584 -3200 0
v -3712 -3200 0
v -3840 -3200 0
v -3968 -3200 0
v -4096 -3200 0
v -4224 -3200 0
v -3840 -1664 0
v -3968 -1664 0
v -3968 -1536 0
v -3840 -1536 0
v -4096 -1664 0
v -4224 -1664 0
v -4224 -1536 0
v -4096 -1536 0
v -2048 -1664 0
v -1920 -1664 0
v -2176 -1664 0
v -3712 -1664 0
v -256 -1792 0
v -128 -1792 0
v -384 -1792 0

# Texture cooridinates (Count = 72)
vt 0.1251221 0.9376221
vt 0.2498779 0.9376221
vt 0.2498779 0.9998779
vt 0.1251221 0.9998779
vt 0.1251221 0.8751221
vt 0.2498779 0.8751221
vt 0.2498779 0.9373779
vt 0.1251221 0.9373779
vt 0.0001220703 0.7501221
vt 0.1248779 0.7501221
vt 0.1248779 0.8123779
vt 0.0001220703 0.8123779
vt 0.0001220703 0.8751221
vt 0.1248779 0.8751221
vt 0.1248779 0.9373779
vt 0.0001220703 0.9373779
vt 0.2501221 0.6251221
vt 0.3748779 0.6251221
vt 0.3748779 0.6873779
vt 0.2501221 0.6873779
vt 0.2501221 0.0001220703
vt 0.3748779 0.0001220703
vt 0.3748779 0.06237793
vt 0.2501221 0.06237793
vt 0.0001220703 0.1876221
vt 0.1248779 0.1876221
vt 0.1248779 0.2498779
vt 0.0001220703 0.2498779
vt 0.0001220703 0.6876221
vt 0.1248779 0.6876221
vt 0.1248779 0.7498779
vt 0.0001220703 0.7498779
vt 0.0001220703 0.3751221
vt 0.1248779 0.3751221
vt 0.1248779 0.4373779
vt 0.0001220703 0.4373779
vt 0.3751221 0.6876221
vt 0.4998779 0.6876221
vt 0.4998779 0.7498779
vt 0.3751221 0.7498779
vt 0.0001220703 0.3126221
vt 0.1248779 0.3126221
vt 0.1248779 0.3748779
vt 0.0001220703 0.3748779
vt 0.5001221 0.9376221
vt 0.6248779 0.9376221
vt 0.6248779 0.9998779
vt 0.5001221 0.9998779
vt 0.1251221 0.6876221
vt 0.2498779 0.6876221
vt 0.2498779 0.7498779
vt 0.1251221 0.7498779
vt 0.1251221 0.7501221
vt 0.2498779 0.7501221
vt 0.2498779 0.8123779
vt 0.1251221 0.8123779
vt 0.3751221 0.6251221
vt 0.4998779 0.6251221
vt 0.4998779 0.6873779
vt 0.3751221 0.6873779
vt 0.2501221 0.8751221
vt 0.3748779 0.8751221
vt 0.3748779 0.9373779
vt 0.2501221 0.9373779
vt 0.5001221 0.5001221
vt 0.6248779 0.5001221
vt 0.6248779 0.5623779
vt 0.5001221 0.5623779
vt 0.3751221 0.5001221
vt 0.4998779 0.5001221
vt 0.4998779 0.5623779
vt 0.3751221 0.5623779

# Normal
vn 0 0 -1

# Groups (Count = 4)

g mesh_0002
f 1/1/1 2/2/1 3/3/1 4/4/1
f 2/1/1 5/2/1 6/3/1 3/4/1
f 5/1/1 7/2/1 8/3/1 6/4/1
f 7/1/1 9/2/1 10/3/1 8/4/1
f 9/1/1 11/2/1 12/3/1 10/4/1
f 13/5/1 14/6/1 2/7/1 1/8/1
f 14/5/1 15/6/1 5/7/1 2/8/1
f 15/5/1 16/6/1 7/7/1 5/8/1
f 16/5/1 17/6/1 9/7/1 7/8/1
f 17/5/1 18/6/1 11/7/1 9/8/1
f 19/5/1 20/6/1 14/7/1 13/8/1
f 20/5/1 21/6/1 15/7/1 14/8/1
f 21/5/1 22/6/1 16/7/1 15/8/1
f 22/5/1 23/6/1 17/7/1 16/8/1
f 23/5/1 24/6/1 18/7/1 17/8/1
f 25/5/1 26/6/1 20/7/1 19/8/1
f 26/5/1 27/6/1 21/7/1 20/8/1
f 27/5/1 28/6/1 22/7/1 21/8/1
f 28/5/1 29/6/1 23/7/1 22/8/1
f 29/5/1 30/6/1 24/7/1 23/8/1
f 31/5/1 32/6/1 26/7/1 25/8/1
f 32/5/1 33/6/1 27/7/1 26/8/1
f 33/5/1 34/6/1 28/7/1 27/8/1
f 34/5/1 35/6/1 29/7/1 28/8/1
f 35/5/1 36/6/1 30/7/1 29/8/1
f 37/5/1 38/6/1 32/7/1 31/8/1
f 38/5/1 39/6/1 33/7/1 32/8/1
f 39/5/1 40/6/1 34/7/1 33/8/1
f 40/5/1 41/6/1 35/7/1 34/8/1
f 41/5/1 42/6/1 36/7/1 35/8/1
f 43/5/1 44/6/1 38/7/1 37/8/1
f 44/5/1 45/6/1 39/7/1 38/8/1
f 45/5/1 46/6/1 40/7/1 39/8/1
f 46/5/1 47/6/1 41/7/1 40/8/1
f 47/5/1 48/6/1 42/7/1 41/8/1
f 49/5/1 50/6/1 44/7/1 43/8/1
f 50/5/1 51/6/1 45/7/1 44/8/1
f 51/5/1 52/6/1 46/7/1 45/8/1
f 52/5/1 53/6/1 47/7/1 46/8/1
f 53/5/1 54/6/1 48/7/1 47/8/1
f 55/5/1 56/6/1 50/7/1 49/8/1
f 56/5/1 57/6/1 51/7/1 50/8/1
f 57/5/1 58/6/1 52/7/1 51/8/1
f 58/5/1 59/6/1 53/7/1 52/8/1
f 59/5/1 60/6/1 54/7/1 53/8/1
f 61/5/1 62/6/1 56/7/1 55/8/1
f 62/5/1 63/6/1 57/7/1 56/8/1
f 63/5/1 64/6/1 58/7/1 57/8/1
f 64/5/1 65/6/1 59/7/1 58/8/1
f 65/5/1 66/6/1 60/7/1 59/8/1
f 67/5/1 68/6/1 62/7/1 61/8/1
f 68/5/1 69/6/1 63/7/1 62/8/1
f 69/5/1 70/6/1 64/7/1 63/8/1
f 70/5/1 71/6/1 65/7/1 64/8/1
f 71/5/1 72/6/1 66/7/1 65/8/1

g mesh_0003
f 73/9/1 74/10/1 75/11/1 76/12/1
f 74/13/1 77/14/1 78/15/1 75/16/1
f 77/13/1 1/14/1 4/15/1 78/16/1
f 1/13/1 2/14/1 3/15/1 4/16/1
f 11/17/1 79/18/1 80/19/1 12/20/1
f 79/17/1 81/18/1 82/19/1 80/20/1
f 81/17/1 83/18/1 84/19/1 82/20/1
f 83/17/1 85/18/1 86/19/1 84/20/1
f 85/17/1 87/18/1 88/19/1 86/20/1
f 87/17/1 89/18/1 90/19/1 88/20/1
f 89/17/1 91/18/1 92/19/1 90/20/1
f 91/17/1 93/18/1 94/19/1 92/20/1
f 93/17/1 95/18/1 96/19/1 94/20/1
f 95/17/1 97/18/1 98/19/1 96/20/1
f 97/17/1 99/18/1 100/19/1 98/20/1
f 99/21/1 101/22/1 102/23/1 100/24/1
f 103/25/1 104/26/1 105/27/1 106/28/1
f 104/13/1 107/14/1 108/15/1 105/16/1
f 107/13/1 109/14/1 110/15/1 108/16/1
f 109/29/1 111/30/1 112/31/1 110/32/1
f 113/9/1 114/10/1 73/11/1 115/12/1
f 114/33/1 116/34/1 74/35/1 73/36/1
f 116/1/1 117/2/1 77/3/1 74/4/1
f 117/1/1 13/2/1 1/3/1 77/4/1
f 13/1/1 14/2/1 2/3/1 1/4/1
f 18/37/1 118/38/1 79/39/1 11/40/1
f 118/37/1 119/38/1 81/39/1 79/40/1
f 119/37/1 120/38/1 83/39/1 81/40/1
f 120/37/1 121/38/1 85/39/1 83/40/1
f 121/37/1 122/38/1 87/39/1 85/40/1
f 122/37/1 123/38/1 89/39/1 87/40/1
f 123/37/1 124/38/1 91/39/1 89/40/1
f 124/37/1 125/38/1 93/39/1 91/40/1
f 125/37/1 126/38/1 95/39/1 93/40/1
f 126/37/1 127/38/1 97/39/1 95/40/1
f 127/37/1 128/38/1 99/39/1 97/40/1
f 129/1/1 130/2/1 107/3/1 104/4/1
f 130/1/1 131/2/1 109/3/1 107/4/1
f 131/41/1 132/42/1 111/43/1 109/44/1
f 132/29/1 133/30/1 134/31/1 111/32/1
f 135/9/1 136/10/1 113/11/1 137/12/1
f 136/33/1 138/34/1 114/35/1 113/36/1
f 138/1/1 139/2/1 116/3/1 114/4/1
f 139/1/1 140/2/1 117/3/1 116/4/1
f 140/1/1 19/2/1 13/3/1 117/4/1
f 19/1/1 20/2/1 14/3/1 13/4/1
f 24/37/1 141/38/1 118/39/1 18/40/1
f 141/37/1 142/38/1 119/39/1 118/40/1
f 142/37/1 143/38/1 120/39/1 119/40/1
f 143/37/1 144/38/1 121/39/1 120/40/1
f 144/37/1 145/38/1 122/39/1 121/40/1
f 145/37/1 146/38/1 123/39/1 122/40/1
f 146/37/1 147/38/1 124/39/1 123/40/1
f 147/37/1 148/38/1 125/39/1 124/40/1
f 148/37/1 149/38/1 126/39/1 125/40/1
f 149/37/1 150/38/1 127/39/1 126/40/1
f 150/37/1 151/38/1 128/39/1 127/40/1
f 152/1/1 153/2/1 130/3/1 129/4/1
f 153/1/1 154/2/1 131/3/1 130/4/1
f 154/1/1 155/2/1 132/3/1 131/4/1
f 155/41/1 156/42/1 133/43/1 132/44/1
f 156/29/1 157/30/1 158/31/1 133/32/1
f 159/9/1 160/10/1 135/11/1 161/12/1
f 160/33/1 162/34/1 136/35/1 135/36/1
f 162/1/1 163/2/1 138/3/1 136/4/1
f 163/1/1 164/2/1 139/3/1 138/4/1
f 164/1/1 165/2/1 140/3/1 139/4/1
f 165/1/1 25/2/1 19/3/1 140/4/1
f 25/1/1 26/2/1 20/3/1 19/4/1
f 30/37/1 166/38/1 141/39/1 24/40/1
f 166/37/1 167/38/1 142/39/1 141/40/1
f 167/37/1 168/38/1 143/39/1 142/40/1
f 168/37/1 169/38/1 144/39/1 143/40/1
f 169/37/1 170/38/1 145/39/1 144/40/1
f 170/37/1 171/38/1 146/39/1 145/40/1
f 171/37/1 172/38/1 147/39/1 146/40/1
f 172/37/1 173/38/1 148/39/1 147/40/1
f 173/37/1 174/38/1 149/39/1 148/40/1
f 174/37/1 175/38/1 150/39/1 149/40/1
f 175/37/1 176/38/1 151/39/1 150/40/1
f 177/1/1 178/2/1 153/3/1 152/4/1
f 178/1/1 179/2/1 154/3/1 153/4/1
f 179/1/1 180/2/1 155/3/1 154/4/1
f 180/1/1 181/2/1 156/3/1 155/4/1
f 181/41/1 182/42/1 157/43/1 156/44/1
f 182/13/1 183/14/1 184/15/1 157/16/1
f 183/13/1 185/14/1 186/15/1 184/16/1
f 185/13/1 187/14/1 188/15/1 186/16/1
f 187/13/1 189/14/1 190/15/1 188/16/1
f 189/13/1 191/14/1 159/15/1 190/16/1
f 191/33/1 192/34/1 160/35/1 159/36/1
f 192/1/1 193/2/1 162/3/1 160/4/1
f 193/1/1 194/2/1 163/3/1 162/4/1
f 194/1/1 195/2/1 164/3/1 163/4/1
f 195/1/1 196/2/1 165/3/1 164/4/1
f 196/1/1 31/2/1 25/3/1 165/4/1
f 31/1/1 32/2/1 26/3/1 25/4/1
f 36/37/1 197/38/1 166/39/1 30/40/1
f 197/37/1 198/38/1 167/39/1 166/40/1
f 198/37/1 199/38/1 168/39/1 167/40/1
f 199/37/1 200/38/1 169/39/1 168/40/1
f 200/37/1 201/38/1 170/39/1 169/40/1
f 201/37/1 202/38/1 171/39/1 170/40/1
f 202/37/1 203/38/1 172/39/1 171/40/1
f 203/37/1 204/38/1 173/39/1 172/40/1
f 204/37/1 205/38/1 174/39/1 173/40/1
f 205/37/1 206/38/1 175/39/1 174/40/1
f 206/37/1 207/38/1 176/39/1 175/40/1
f 208/1/1 209/2/1 178/3/1 177/4/1
f 209/1/1 210/2/1 179/3/1 178/4/1
f 210/1/1 211/2/1 180/3/1 179/4/1
f 211/1/1 212/2/1 181/3/1 180/4/1
f 212/1/1 213/2/1 182/3/1 181/4/1
f 213/1/1 214/2/1 183/3/1 182/4/1
f 214/1/1 215/2/1 185/3/1 183/4/1
f 215/1/1 216/2/1 187/3/1 185/4/1
f 216/1/1 217/2/1 189/3/1 187/4/1
f 217/1/1 218/2/1 191/3/1 189/4/1
f 218/1/1 219/2/1 192/3/1 191/4/1
f 219/1/1 220/2/1 193/3/1 192/4/1
f 220/1/1 221/2/1 194/3/1 193/4/1
f 221/1/1 222/2/1 195/3/1 194/4/1
f 222/1/1 223/2/1 196/3/1 195/4/1
f 223/1/1 37/2/1 31/3/1 196/4/1
f 37/1/1 38/2/1 32/3/1 31/4/1
f 42/37/1 224/38/1 197/39/1 36/40/1
f 224/37/1 225/38/1 198/39/1 197/40/1
f 225/37/1 226/38/1 199/39/1 198/40/1
f 226/37/1 227/38/1 200/39/1 199/40/1
f 227/37/1 228/38/1 201/39/1 200/40/1
f 228/37/1 229/38/1 202/39/1 201/40/1
f 229/37/1 230/38/1 203/39/1 202/40/1
f 230/37/1 231/38/1 204/39/1 203/40/1
f 231/37/1 232/38/1 205/39/1 204/40/1
f 232/37/1 233/38/1 206/39/1 205/40/1
f 233/37/1 234/38/1 207/39/1 206/40/1
f 235/1/1 236/2/1 209/3/1 208/4/1
f 236/1/1 237/2/1 210/3/1 209/4/1
f 237/1/1 238/2/1 211/3/1 210/4/1
f 238/1/1 239/2/1 212/3/1 211/4/1
f 239/1/1 240/2/1 213/3/1 212/4/1
f 240/1/1 241/2/1 214/3/1 213/4/1
f 241/1/1 242/2/1 215/3/1 214/4/1
f 242/1/1 243/2/1 216/3/1 215/4/1
f 243/1/1 244/2/1 217/3/1 216/4/1
f 244/1/1 245/2/1 218/3/1 217/4/1
f 245/1/1 246/2/1 219/3/1 218/4/1
f 246/1/1 247/2/1 220/3/1 219/4/1
f 247/1/1 248/2/1 221/3/1 220/4/1
f 248/1/1 249/2/1 222/3/1 221/4/1
f 249/1/1 250/2/1 223/3/1 222/4/1
f 250/1/1 43/2/1 37/3/1 223/4/1
f 43/1/1 44/2/1 38/3/1 37/4/1
f 48/37/1 251/38/1 224/39/1 42/40/1
f 251/37/1 252/38/1 225/39/1 224/40/1
f 252/37/1 253/38/1 226/39/1 225/40/1
f 253/37/1 254/38/1 227/39/1 226/40/1
f 254/37/1 255/38/1 228/39/1 227/40/1
f 255/37/1 256/38/1 229/39/1 228/40/1
f 256/37/1 257/38/1 230/39/1 229/40/1
f 257/37/1 258/38/1 231/39/1 230/40/1
f 258/37/1 259/38/1 232/39/1 231/40/1
f 259/37/1 260/38/1 233/39/1 232/40/1
f 260/37/1 261/38/1 234/39/1 233/40/1
f 262/1/1 263/2/1 236/3/1 235/4/1
f 263/1/1 264/2/1 237/3/1 236/4/1
f 264/1/1 265/2/1 238/3/1 237/4/1
f 265/1/1 266/2/1 239/3/1 238/4/1
f 266/1/1 267/2/1 240/3/1 239/4/1
f 267/1/1 268/2/1 241/3/1 240/4/1
f 268/1/1 269/2/1 242/3/1 241/4/1
f 269/1/1 270/2/1 243/3/1 242/4/1
f 270/1/1 271/2/1 244/3/1 243/4/1
f 271/1/1 272/2/1 245/3/1 244/4/1
f 272/1/1 273/2/1 246/3/1 245/4/1
f 273/1/1 274/2/1 247/3/1 246/4/1
f 274/1/1 275/2/1 248/3/1 247/4/1
f 275/1/1 276/2/1 249/3/1 248/4/1
f 276/1/1 277/2/1 250/3/1 249/4/1
f 277/1/1 49/2/1 43/3/1 250/4/1
f 49/1/1 50/2/1 44/3/1 43/4/1
f 54/37/1 278/38/1 251/39/1 48/40/1
f 278/37/1 279/38/1 252/39/1 251/40/1
f 279/37/1 280/38/1 253/39/1 252/40/1
f 280/37/1 281/38/1 254/39/1 253/40/1
f 281/37/1 282/38/1 255/39/1 254/40/1
f 282/37/1 283/38/1 256/39/1 255/40/1
f 283/37/1 284/38/1 257/39/1 256/40/1
f 284/37/1 285/38/1 258/39/1 257/40/1
f 285/37/1 286/38/1 259/39/1 258/40/1
f 286/37/1 287/38/1 260/39/1 259/40/1
f 287/37/1 288/38/1 261/39/1 260/40/1
f 289/1/1 290/2/1 263/3/1 262/4/1
f 290/1/1 291/2/1 264/3/1 263/4/1
f 291/1/1 292/2/1 265/3/1 264/4/1
f 292/1/1 293/2/1 266/3/1 265/4/1
f 293/1/1 294/2/1 267/3/1 266/4/1
f 294/1/1 295/2/1 268/3/1 267/4/1
f 295/1/1 296/2/1 269/3/1 268/4/1
f 296/1/1 297/2/1 270/3/1 269/4/1
f 297/1/1 298/2/1 271/3/1 270/4/1
f 298/1/1 299/2/1 272/3/1 271/4/1
f 299/1/1 300/2/1 273/3/1 272/4/1
f 300/1/1 301/2/1 274/3/1 273/4/1
f 301/1/1 302/2/1 275/3/1 274/4/1
f 302/1/1 303/2/1 276/3/1 275/4/1
f 303/1/1 304/2/1 277/3/1 276/4/1
f 304/1/1 55/2/1 49/3/1 277/4/1
f 55/1/1 56/2/1 50/3/1 49/4/1
f 60/37/1 305/38/1 278/39/1 54/40/1
f 305/37/1 306/38/1 279/39/1 278/40/1
f 306/37/1 307/38/1 280/39/1 279/40/1
f 307/37/1 308/38/1 281/39/1 280/40/1
f 308/37/1 309/38/1 282/39/1 281/40/1
f 309/37/1 310/38/1 283/39/1 282/40/1
f 310/37/1 311/38/1 284/39/1 283/40/1
f 311/37/1 312/38/1 285/39/1 284/40/1
f 312/37/1 313/38/1 286/39/1 285/40/1
f 313/37/1 314/38/1 287/39/1 286/40/1
f 314/37/1 315/38/1 288/39/1 287/40/1
f 316/1/1 317/2/1 290/3/1 289/4/1
f 317/1/1 318/2/1 291/3/1 290/4/1
f 318/1/1 319/2/1 292/3/1 291/4/1
f 319/1/1 320/2/1 293/3/1 292/4/1
f 320/1/1 321/2/1 294/3/1 293/4/1
f 321/1/1 322/2/1 295/3/1 294/4/1
f 322/1/1 323/2/1 296/3/1 295/4/1
f 323/1/1 324/2/1 297/3/1 296/4/1
f 324/1/1 325/2/1 298/3/1 297/4/1
f 325/1/1 326/2/1 299/3/1 298/4/1
f 326/1/1 327/2/1 300/3/1 299/4/1
f 327/1/1 328/2/1 301/3/1 300/4/1
f 328/1/1 329/2/1 302/3/1 301/4/1
f 329/1/1 330/2/1 303/3/1 302/4/1
f 330/1/1 331/2/1 304/3/1 303/4/1
f 331/1/1 61/2/1 55/3/1 304/4/1
f 61/1/1 62/2/1 56/3/1 55/4/1
f 66/37/1 332/38/1 305/39/1 60/40/1
f 332/37/1 333/38/1 306/39/1 305/40/1
f 333/37/1 334/38/1 307/39/1 306/40/1
f 334/37/1 335/38/1 308/39/1 307/40/1
f 335/37/1 336/38/1 309/39/1 308/40/1
f 336/37/1 337/38/1 310/39/1 309/40/1
f 337/37/1 338/38/1 311/39/1 310/40/1
f 338/37/1 339/38/1 312/39/1 311/40/1
f 339/37/1 340/38/1 313/39/1 312/40/1
f 340/37/1 341/38/1 314/39/1 313/40/1
f 341/37/1 342/38/1 315/39/1 314/40/1
f 343/1/1 344/2/1 317/3/1 316/4/1
f 344/1/1 345/2/1 318/3/1 317/4/1
f 345/1/1 346/2/1 319/3/1 318/4/1
f 346/1/1 347/2/1 320/3/1 319/4/1
f 347/1/1 348/2/1 321/3/1 320/4/1
f 348/1/1 349/2/1 322/3/1 321/4/1
f 349/1/1 350/2/1 323/3/1 322/4/1
f 350/1/1 351/2/1 324/3/1 323/4/1
f 351/1/1 352/2/1 325/3/1 324/4/1
f 352/1/1 353/2/1 326/3/1 325/4/1
f 353/1/1 354/2/1 327/3/1 326/4/1
f 354/1/1 355/2/1 328/3/1 327/4/1
f 355/1/1 356/2/1 329/3/1 328/4/1
f 356/1/1 357/2/1 330/3/1 329/4/1
f 357/1/1 358/2/1 331/3/1 330/4/1
f 358/1/1 67/2/1 61/3/1 331/4/1
f 67/1/1 68/2/1 62/3/1 61/4/1
f 72/37/1 359/38/1 332/39/1 66/40/1
f 359/37/1 360/38/1 333/39/1 332/40/1
f 360/37/1 361/38/1 334/39/1 333/40/1
f 361/37/1 362/38/1 335/39/1 334/40/1
f 362/37/1 363/38/1 336/39/1 335/40/1
f 363/37/1 364/38/1 337/39/1 336/40/1
f 364/37/1 365/38/1 338/39/1 337/40/1
f 365/37/1 366/38/1 339/39/1 338/40/1
f 366/37/1 367/38/1 340/39/1 339/40/1
f 367/37/1 368/38/1 341/39/1 340/40/1
f 368/37/1 369/38/1 342/39/1 341/40/1

g mesh_0004
f 2/45/1 5/46/1 6/47/1 3/48/1
f 5/45/1 7/46/1 8/47/1 6/48/1
f 7/45/1 9/46/1 10/47/1 8/48/1
f 9/45/1 11/46/1 12/47/1 10/48/1

g mesh_0005
f 370/49/1 371/50/1 372/51/1 373/52/1
f 374/49/1 375/50/1 376/51/1 377/52/1

g mesh_0006
f 370/53/1 371/54/1 372/55/1 373/56/1
f 374/53/1 375/54/1 376/55/1 377/56/1

g mesh_0007
f 75/57/1 78/58/1 378/59/1 379/60/1
f 78/61/1 4/62/1 380/63/1 378/64/1
f 92/65/1 94/66/1 370/67/1 381/68/1
f 105/69/1 108/70/1 382/71/1 383/72/1
f 108/69/1 110/70/1 384/71/1 382/72/1

