# Wavefront OBJ file automatically generated by Tiled2Unity

# Vertices (Count = 256)
v -1792 -1920 0
v -1920 -1920 0
v -1920 -1792 0
v -1792 -1792 0
v -2048 -1920 0
v -2048 -1792 0
v -2176 -1920 0
v -2176 -1792 0
v -384 -2560 0
v -512 -2560 0
v -512 -2432 0
v -384 -2432 0
v -1664 -1920 0
v -1664 -1792 0
v -2304 -1920 0
v -2304 -1792 0
v -2432 -1920 0
v -2432 -1792 0
v -4736 -1920 0
v -4864 -1920 0
v -4864 -1792 0
v -4736 -1792 0
v -4992 -1920 0
v -4992 -1792 0
v -5120 -1920 0
v -5120 -1792 0
v -5248 -1920 0
v -5248 -1792 0
v -5376 -1920 0
v -5376 -1792 0
v -5504 -1920 0
v -5504 -1792 0
v -5632 -1920 0
v -5632 -1792 0
v -5760 -1920 0
v -5760 -1792 0
v -5888 -1920 0
v -5888 -1792 0
v -6016 -1920 0
v -6016 -1792 0
v -6144 -1920 0
v -6144 -1792 0
v -6272 -1920 0
v -6272 -1792 0
v -6400 -1920 0
v -6400 -1792 0
v -1408 -2048 0
v -1536 -2048 0
v -1536 -1920 0
v -1408 -1920 0
v -1664 -2048 0
v -1792 -2048 0
v -2304 -2048 0
v -2432 -2048 0
v -2560 -2048 0
v -2560 -1920 0
v -4608 -2048 0
v -4736 -2048 0
v -4608 -1920 0
v -4864 -2048 0
v -4992 -2048 0
v -5120 -2048 0
v -5248 -2048 0
v -5376 -2048 0
v -5504 -2048 0
v -5632 -2048 0
v -5760 -2048 0
v -5888 -2048 0
v -6016 -2048 0
v -6144 -2048 0
v -6272 -2048 0
v -6400 -2048 0
v -1152 -2176 0
v -1280 -2176 0
v -1280 -2048 0
v -1152 -2048 0
v -1408 -2176 0
v -1536 -2176 0
v -1664 -2176 0
v -1792 -2176 0
v -2432 -2176 0
v -2560 -2176 0
v -2688 -2176 0
v -2688 -2048 0
v -4480 -2176 0
v -4608 -2176 0
v -4480 -2048 0
v -4736 -2176 0
v -4864 -2176 0
v -4992 -2176 0
v -5120 -2176 0
v -5248 -2176 0
v -5376 -2176 0
v -5504 -2176 0
v -5632 -2176 0
v -5760 -2176 0
v -5888 -2176 0
v -6016 -2176 0
v -6144 -2176 0
v -6272 -2176 0
v -6400 -2176 0
v -896 -2304 0
v -1024 -2304 0
v -1024 -2176 0
v -896 -2176 0
v -1152 -2304 0
v -1280 -2304 0
v -1408 -2304 0
v -1536 -2304 0
v -1664 -2304 0
v -1792 -2304 0
v -2560 -2304 0
v -2688 -2304 0
v -2816 -2304 0
v -2816 -2176 0
v -4352 -2304 0
v -4480 -2304 0
v -4352 -2176 0
v -4608 -2304 0
v -4736 -2304 0
v -4864 -2304 0
v -4992 -2304 0
v -5120 -2304 0
v -5248 -2304 0
v -5376 -2304 0
v -5504 -2304 0
v -5632 -2304 0
v -5760 -2304 0
v -5888 -2304 0
v -6016 -2304 0
v -6144 -2304 0
v -6272 -2304 0
v -6400 -2304 0
v -640 -2432 0
v -768 -2432 0
v -768 -2304 0
v -640 -2304 0
v -896 -2432 0
v -1024 -2432 0
v -1152 -2432 0
v -1280 -2432 0
v -1408 -2432 0
v -1536 -2432 0
v -1664 -2432 0
v -1792 -2432 0
v -2688 -2432 0
v -2816 -2432 0
v -2944 -2432 0
v -2944 -2304 0
v -3072 -2432 0
v -3072 -2304 0
v -3200 -2432 0
v -3200 -2304 0
v -3328 -2432 0
v -3328 -2304 0
v -3456 -2432 0
v -3456 -2304 0
v -3584 -2432 0
v -3584 -2304 0
v -3712 -2432 0
v -3712 -2304 0
v -3840 -2432 0
v -3840 -2304 0
v -3968 -2432 0
v -3968 -2304 0
v -4096 -2432 0
v -4096 -2304 0
v -4224 -2432 0
v -4224 -2304 0
v -4352 -2432 0
v -4480 -2432 0
v -4608 -2432 0
v -4736 -2432 0
v -4864 -2432 0
v -4992 -2432 0
v -5120 -2432 0
v -5248 -2432 0
v -5376 -2432 0
v -5504 -2432 0
v -5632 -2432 0
v -5760 -2432 0
v -5888 -2432 0
v -6016 -2432 0
v -6144 -2432 0
v -6272 -2432 0
v -6400 -2432 0
v 0 -2560 0
v -128 -2560 0
v -128 -2432 0
v 0 -2432 0
v -256 -2560 0
v -256 -2432 0
v -640 -2560 0
v -768 -2560 0
v -896 -2560 0
v -1024 -2560 0
v -1152 -2560 0
v -1280 -2560 0
v -1408 -2560 0
v -1536 -2560 0
v -1664 -2560 0
v -1792 -2560 0
v -2688 -2560 0
v -2816 -2560 0
v -2944 -2560 0
v -3072 -2560 0
v -3200 -2560 0
v -3328 -2560 0
v -3456 -2560 0
v -3584 -2560 0
v -3712 -2560 0
v -3840 -2560 0
v -3968 -2560 0
v -4096 -2560 0
v -4224 -2560 0
v -4352 -2560 0
v -4480 -2560 0
v -4608 -2560 0
v -4736 -2560 0
v -4864 -2560 0
v -4992 -2560 0
v -5120 -2560 0
v -5248 -2560 0
v -5376 -2560 0
v -5504 -2560 0
v -5632 -2560 0
v -5760 -2560 0
v -5888 -2560 0
v -6016 -2560 0
v -6144 -2560 0
v -6272 -2560 0
v -6400 -2560 0
v -1920 -2048 0
v -2048 -2048 0
v -2176 -2048 0
v -1920 -2176 0
v -2048 -2176 0
v -2176 -2176 0
v -2304 -2176 0
v -1920 -2304 0
v -2048 -2304 0
v -2176 -2304 0
v -2304 -2304 0
v -2432 -2304 0
v -1920 -2432 0
v -2048 -2432 0
v -2176 -2432 0
v -2304 -2432 0
v -2432 -2432 0
v -2560 -2432 0
v -1920 -2560 0
v -2048 -2560 0
v -2176 -2560 0
v -2304 -2560 0
v -2432 -2560 0
v -2560 -2560 0

# Texture cooridinates (Count = 40)
vt 0.1251221 0.9376221
vt 0.2498779 0.9376221
vt 0.2498779 0.9998779
vt 0.1251221 0.9998779
vt 0.6251221 0.2501221
vt 0.7498779 0.2501221
vt 0.7498779 0.3123779
vt 0.6251221 0.3123779
vt 0.7501221 0.5626221
vt 0.8748779 0.5626221
vt 0.8748779 0.6248779
vt 0.7501221 0.6248779
vt 0.6251221 0.06262207
vt 0.7498779 0.06262207
vt 0.7498779 0.1248779
vt 0.6251221 0.1248779
vt 0.6251221 0.1251221
vt 0.7498779 0.1251221
vt 0.7498779 0.1873779
vt 0.6251221 0.1873779
vt 0.7501221 0.3126221
vt 0.8748779 0.3126221
vt 0.8748779 0.3748779
vt 0.7501221 0.3748779
vt 0.7501221 0.6876221
vt 0.8748779 0.6876221
vt 0.8748779 0.7498779
vt 0.7501221 0.7498779
vt 0.7501221 0.7501221
vt 0.8748779 0.7501221
vt 0.8748779 0.8123779
vt 0.7501221 0.8123779
vt 0.7501221 0.6251221
vt 0.8748779 0.6251221
vt 0.8748779 0.6873779
vt 0.7501221 0.6873779
vt 0.1251221 0.8751221
vt 0.2498779 0.8751221
vt 0.2498779 0.9373779
vt 0.1251221 0.9373779

# Normal
vn 0 0 -1

# Groups (Count = 2)

g mesh_0001
f 1/1/1 2/2/1 3/3/1 4/4/1
f 2/1/1 5/2/1 6/3/1 3/4/1
f 5/1/1 7/2/1 8/3/1 6/4/1
f 9/1/1 10/2/1 11/3/1 12/4/1

g mesh_0002
f 13/5/1 1/6/1 4/7/1 14/8/1
f 5/9/1 7/10/1 8/11/1 6/12/1
f 7/5/1 15/6/1 16/7/1 8/8/1
f 15/13/1 17/14/1 18/15/1 16/16/1
f 19/17/1 20/18/1 21/19/1 22/20/1
f 20/5/1 23/6/1 24/7/1 21/8/1
f 23/5/1 25/6/1 26/7/1 24/8/1
f 25/5/1 27/6/1 28/7/1 26/8/1
f 27/5/1 29/6/1 30/7/1 28/8/1
f 29/5/1 31/6/1 32/7/1 30/8/1
f 31/5/1 33/6/1 34/7/1 32/8/1
f 33/5/1 35/6/1 36/7/1 34/8/1
f 35/5/1 37/6/1 38/7/1 36/8/1
f 37/5/1 39/6/1 40/7/1 38/8/1
f 39/5/1 41/6/1 42/7/1 40/8/1
f 41/5/1 43/6/1 44/7/1 42/8/1
f 43/5/1 45/6/1 46/7/1 44/8/1
f 47/5/1 48/6/1 49/7/1 50/8/1
f 51/21/1 52/22/1 1/23/1 13/24/1
f 53/25/1 54/26/1 17/27/1 15/28/1
f 54/13/1 55/14/1 56/15/1 17/16/1
f 57/17/1 58/18/1 19/19/1 59/20/1
f 58/29/1 60/30/1 20/31/1 19/32/1
f 60/21/1 61/22/1 23/23/1 20/24/1
f 61/21/1 62/22/1 25/23/1 23/24/1
f 62/21/1 63/22/1 27/23/1 25/24/1
f 63/21/1 64/22/1 29/23/1 27/24/1
f 64/21/1 65/22/1 31/23/1 29/24/1
f 65/21/1 66/22/1 33/23/1 31/24/1
f 66/21/1 67/22/1 35/23/1 33/24/1
f 67/21/1 68/22/1 37/23/1 35/24/1
f 68/21/1 69/22/1 39/23/1 37/24/1
f 69/21/1 70/22/1 41/23/1 39/24/1
f 70/21/1 71/22/1 43/23/1 41/24/1
f 71/21/1 72/22/1 45/23/1 43/24/1
f 73/5/1 74/6/1 75/7/1 76/8/1
f 77/21/1 78/22/1 48/23/1 47/24/1
f 79/21/1 80/22/1 52/23/1 51/24/1
f 81/25/1 82/26/1 55/27/1 54/28/1
f 82/13/1 83/14/1 84/15/1 55/16/1
f 85/17/1 86/18/1 57/19/1 87/20/1
f 86/29/1 88/30/1 58/31/1 57/32/1
f 88/21/1 89/22/1 60/23/1 58/24/1
f 89/21/1 90/22/1 61/23/1 60/24/1
f 90/21/1 91/22/1 62/23/1 61/24/1
f 91/21/1 92/22/1 63/23/1 62/24/1
f 92/21/1 93/22/1 64/23/1 63/24/1
f 93/21/1 94/22/1 65/23/1 64/24/1
f 94/21/1 95/22/1 66/23/1 65/24/1
f 95/21/1 96/22/1 67/23/1 66/24/1
f 96/21/1 97/22/1 68/23/1 67/24/1
f 97/21/1 98/22/1 69/23/1 68/24/1
f 98/21/1 99/22/1 70/23/1 69/24/1
f 99/21/1 100/22/1 71/23/1 70/24/1
f 100/21/1 101/22/1 72/23/1 71/24/1
f 102/5/1 103/6/1 104/7/1 105/8/1
f 106/21/1 107/22/1 74/23/1 73/24/1
f 108/21/1 109/22/1 78/23/1 77/24/1
f 110/21/1 111/22/1 80/23/1 79/24/1
f 112/25/1 113/26/1 83/27/1 82/28/1
f 113/13/1 114/14/1 115/15/1 83/16/1
f 116/17/1 117/18/1 85/19/1 118/20/1
f 117/29/1 119/30/1 86/31/1 85/32/1
f 119/21/1 120/22/1 88/23/1 86/24/1
f 120/21/1 121/22/1 89/23/1 88/24/1
f 121/21/1 122/22/1 90/23/1 89/24/1
f 122/21/1 123/22/1 91/23/1 90/24/1
f 123/21/1 124/22/1 92/23/1 91/24/1
f 124/21/1 125/22/1 93/23/1 92/24/1
f 125/21/1 126/22/1 94/23/1 93/24/1
f 126/21/1 127/22/1 95/23/1 94/24/1
f 127/21/1 128/22/1 96/23/1 95/24/1
f 128/21/1 129/22/1 97/23/1 96/24/1
f 129/21/1 130/22/1 98/23/1 97/24/1
f 130/21/1 131/22/1 99/23/1 98/24/1
f 131/21/1 132/22/1 100/23/1 99/24/1
f 132/21/1 133/22/1 101/23/1 100/24/1
f 134/5/1 135/6/1 136/7/1 137/8/1
f 138/21/1 139/22/1 103/23/1 102/24/1
f 140/21/1 141/22/1 107/23/1 106/24/1
f 142/21/1 143/22/1 109/23/1 108/24/1
f 144/21/1 145/22/1 111/23/1 110/24/1
f 146/25/1 147/26/1 114/27/1 113/28/1
f 147/5/1 148/6/1 149/7/1 114/8/1
f 148/5/1 150/6/1 151/7/1 149/8/1
f 150/5/1 152/6/1 153/7/1 151/8/1
f 152/5/1 154/6/1 155/7/1 153/8/1
f 154/5/1 156/6/1 157/7/1 155/8/1
f 156/5/1 158/6/1 159/7/1 157/8/1
f 158/5/1 160/6/1 161/7/1 159/8/1
f 160/5/1 162/6/1 163/7/1 161/8/1
f 162/5/1 164/6/1 165/7/1 163/8/1
f 164/5/1 166/6/1 167/7/1 165/8/1
f 166/5/1 168/6/1 169/7/1 167/8/1
f 168/5/1 170/6/1 116/7/1 169/8/1
f 170/29/1 171/30/1 117/31/1 116/32/1
f 171/21/1 172/22/1 119/23/1 117/24/1
f 172/21/1 173/22/1 120/23/1 119/24/1
f 173/21/1 174/22/1 121/23/1 120/24/1
f 174/21/1 175/22/1 122/23/1 121/24/1
f 175/21/1 176/22/1 123/23/1 122/24/1
f 176/21/1 177/22/1 124/23/1 123/24/1
f 177/21/1 178/22/1 125/23/1 124/24/1
f 178/21/1 179/22/1 126/23/1 125/24/1
f 179/21/1 180/22/1 127/23/1 126/24/1
f 180/21/1 181/22/1 128/23/1 127/24/1
f 181/21/1 182/22/1 129/23/1 128/24/1
f 182/21/1 183/22/1 130/23/1 129/24/1
f 183/21/1 184/22/1 131/23/1 130/24/1
f 184/21/1 185/22/1 132/23/1 131/24/1
f 185/21/1 186/22/1 133/23/1 132/24/1
f 187/5/1 188/6/1 189/7/1 190/8/1
f 188/5/1 191/6/1 192/7/1 189/8/1
f 191/5/1 9/6/1 12/7/1 192/8/1
f 9/33/1 10/34/1 11/35/1 12/36/1
f 193/21/1 194/22/1 135/23/1 134/24/1
f 195/21/1 196/22/1 139/23/1 138/24/1
f 197/21/1 198/22/1 141/23/1 140/24/1
f 199/21/1 200/22/1 143/23/1 142/24/1
f 201/21/1 202/22/1 145/23/1 144/24/1
f 203/21/1 204/22/1 147/23/1 146/24/1
f 204/21/1 205/22/1 148/23/1 147/24/1
f 205/21/1 206/22/1 150/23/1 148/24/1
f 206/21/1 207/22/1 152/23/1 150/24/1
f 207/21/1 208/22/1 154/23/1 152/24/1
f 208/21/1 209/22/1 156/23/1 154/24/1
f 209/21/1 210/22/1 158/23/1 156/24/1
f 210/21/1 211/22/1 160/23/1 158/24/1
f 211/21/1 212/22/1 162/23/1 160/24/1
f 212/21/1 213/22/1 164/23/1 162/24/1
f 213/21/1 214/22/1 166/23/1 164/24/1
f 214/21/1 215/22/1 168/23/1 166/24/1
f 215/21/1 216/22/1 170/23/1 168/24/1
f 216/21/1 217/22/1 171/23/1 170/24/1
f 217/21/1 218/22/1 172/23/1 171/24/1
f 218/21/1 219/22/1 173/23/1 172/24/1
f 219/21/1 220/22/1 174/23/1 173/24/1
f 220/21/1 221/22/1 175/23/1 174/24/1
f 221/21/1 222/22/1 176/23/1 175/24/1
f 222/21/1 223/22/1 177/23/1 176/24/1
f 223/21/1 224/22/1 178/23/1 177/24/1
f 224/21/1 225/22/1 179/23/1 178/24/1
f 225/21/1 226/22/1 180/23/1 179/24/1
f 226/21/1 227/22/1 181/23/1 180/24/1
f 227/21/1 228/22/1 182/23/1 181/24/1
f 228/21/1 229/22/1 183/23/1 182/24/1
f 229/21/1 230/22/1 184/23/1 183/24/1
f 230/21/1 231/22/1 185/23/1 184/24/1
f 231/21/1 232/22/1 186/23/1 185/24/1

g mesh_0003
f 48/1/1 51/2/1 13/3/1 49/4/1
f 52/37/1 233/38/1 2/39/1 1/40/1
f 233/37/1 234/38/1 5/39/1 2/40/1
f 234/37/1 235/38/1 7/39/1 5/40/1
f 235/37/1 53/38/1 15/39/1 7/40/1
f 74/1/1 77/2/1 47/3/1 75/4/1
f 78/37/1 79/38/1 51/39/1 48/40/1
f 80/37/1 236/38/1 233/39/1 52/40/1
f 236/37/1 237/38/1 234/39/1 233/40/1
f 237/37/1 238/38/1 235/39/1 234/40/1
f 238/37/1 239/38/1 53/39/1 235/40/1
f 239/37/1 81/38/1 54/39/1 53/40/1
f 103/1/1 106/2/1 73/3/1 104/4/1
f 107/37/1 108/38/1 77/39/1 74/40/1
f 109/37/1 110/38/1 79/39/1 78/40/1
f 111/37/1 240/38/1 236/39/1 80/40/1
f 240/37/1 241/38/1 237/39/1 236/40/1
f 241/37/1 242/38/1 238/39/1 237/40/1
f 242/37/1 243/38/1 239/39/1 238/40/1
f 243/37/1 244/38/1 81/39/1 239/40/1
f 244/37/1 112/38/1 82/39/1 81/40/1
f 135/1/1 138/2/1 102/3/1 136/4/1
f 139/37/1 140/38/1 106/39/1 103/40/1
f 141/37/1 142/38/1 108/39/1 107/40/1
f 143/37/1 144/38/1 110/39/1 109/40/1
f 145/37/1 245/38/1 240/39/1 111/40/1
f 245/37/1 246/38/1 241/39/1 240/40/1
f 246/37/1 247/38/1 242/39/1 241/40/1
f 247/37/1 248/38/1 243/39/1 242/40/1
f 248/37/1 249/38/1 244/39/1 243/40/1
f 249/37/1 250/38/1 112/39/1 244/40/1
f 250/37/1 146/38/1 113/39/1 112/40/1
f 10/1/1 193/2/1 134/3/1 11/4/1
f 194/37/1 195/38/1 138/39/1 135/40/1
f 196/37/1 197/38/1 140/39/1 139/40/1
f 198/37/1 199/38/1 142/39/1 141/40/1
f 200/37/1 201/38/1 144/39/1 143/40/1
f 202/37/1 251/38/1 245/39/1 145/40/1
f 251/37/1 252/38/1 246/39/1 245/40/1
f 252/37/1 253/38/1 247/39/1 246/40/1
f 253/37/1 254/38/1 248/39/1 247/40/1
f 254/37/1 255/38/1 249/39/1 248/40/1
f 255/37/1 256/38/1 250/39/1 249/40/1
f 256/37/1 203/38/1 146/39/1 250/40/1

