# Wavefront OBJ file automatically generated by Tiled2Unity

# Vertices (Count = 90)
v -4480 -640 0
v -4608 -640 0
v -4608 -512 0
v -4480 -512 0
v -4736 -640 0
v -4736 -512 0
v -4864 -640 0
v -4864 -512 0
v -4992 -640 0
v -4992 -512 0
v -5120 -640 0
v -5120 -512 0
v -4352 -768 0
v -4480 -768 0
v -4352 -640 0
v -4608 -768 0
v -4224 -896 0
v -4352 -896 0
v -4224 -768 0
v -4480 -896 0
v -3456 -1024 0
v -3584 -1024 0
v -3584 -896 0
v -3456 -896 0
v -3712 -1024 0
v -3712 -896 0
v -3840 -1024 0
v -3840 -896 0
v -3968 -1024 0
v -3968 -896 0
v -4096 -1024 0
v -4096 -896 0
v -4224 -1024 0
v -4352 -1024 0
v -3200 -1280 0
v -3328 -1280 0
v -3328 -1152 0
v -3200 -1152 0
v -2944 -1536 0
v -3072 -1536 0
v -3072 -1408 0
v -2944 -1408 0
v -2688 -1792 0
v -2816 -1792 0
v -2816 -1664 0
v -2688 -1664 0
v 0 -2048 0
v -128 -2048 0
v -128 -1920 0
v 0 -1920 0
v -256 -2048 0
v -256 -1920 0
v -384 -2048 0
v -384 -1920 0
v -640 -2048 0
v -768 -2048 0
v -768 -1920 0
v -640 -1920 0
v -896 -2048 0
v -896 -1920 0
v -1152 -2048 0
v -1280 -2048 0
v -1280 -1920 0
v -1152 -1920 0
v -1408 -2048 0
v -1408 -1920 0
v -1664 -2048 0
v -1792 -2048 0
v -1792 -1920 0
v -1664 -1920 0
v -1920 -2048 0
v -1920 -1920 0
v -2176 -2048 0
v -2304 -2048 0
v -2304 -1920 0
v -2176 -1920 0
v -2432 -2048 0
v -2432 -1920 0
v 0 -2176 0
v -128 -2176 0
v -256 -2176 0
v 0 -2304 0
v -128 -2304 0
v -256 -2304 0
v 0 -2432 0
v -128 -2432 0
v -256 -2432 0
v 0 -2560 0
v -128 -2560 0
v -256 -2560 0

# Texture cooridinates (Count = 28)
vt 0.6251221 0.1251221
vt 0.7498779 0.1251221
vt 0.7498779 0.1873779
vt 0.6251221 0.1873779
vt 0.6251221 0.2501221
vt 0.7498779 0.2501221
vt 0.7498779 0.3123779
vt 0.6251221 0.3123779
vt 0.7501221 0.7501221
vt 0.8748779 0.7501221
vt 0.8748779 0.8123779
vt 0.7501221 0.8123779
vt 0.7501221 0.5626221
vt 0.8748779 0.5626221
vt 0.8748779 0.6248779
vt 0.7501221 0.6248779
vt 0.3751221 0.6251221
vt 0.4998779 0.6251221
vt 0.4998779 0.6873779
vt 0.3751221 0.6873779
vt 0.7501221 0.6251221
vt 0.8748779 0.6251221
vt 0.8748779 0.6873779
vt 0.7501221 0.6873779
vt 0.7501221 0.3126221
vt 0.8748779 0.3126221
vt 0.8748779 0.3748779
vt 0.7501221 0.3748779

# Normal
vn 0 0 -1

# Groups (Count = 2)

g mesh_0001
f 1/1/1 2/2/1 3/3/1 4/4/1
f 2/5/1 5/6/1 6/7/1 3/8/1
f 5/5/1 7/6/1 8/7/1 6/8/1
f 7/5/1 9/6/1 10/7/1 8/8/1
f 9/5/1 11/6/1 12/7/1 10/8/1
f 13/1/1 14/2/1 1/3/1 15/4/1
f 14/9/1 16/10/1 2/11/1 1/12/1
f 17/1/1 18/2/1 13/3/1 19/4/1
f 18/9/1 20/10/1 14/11/1 13/12/1
f 21/13/1 22/14/1 23/15/1 24/16/1
f 22/5/1 25/6/1 26/7/1 23/8/1
f 25/5/1 27/6/1 28/7/1 26/8/1
f 27/5/1 29/6/1 30/7/1 28/8/1
f 29/5/1 31/6/1 32/7/1 30/8/1
f 31/5/1 33/6/1 17/7/1 32/8/1
f 33/9/1 34/10/1 18/11/1 17/12/1
f 35/17/1 36/18/1 37/19/1 38/20/1
f 39/17/1 40/18/1 41/19/1 42/20/1
f 43/17/1 44/18/1 45/19/1 46/20/1
f 47/5/1 48/6/1 49/7/1 50/8/1
f 48/5/1 51/6/1 52/7/1 49/8/1
f 51/21/1 53/22/1 54/23/1 52/24/1
f 55/13/1 56/14/1 57/15/1 58/16/1
f 56/21/1 59/22/1 60/23/1 57/24/1
f 61/13/1 62/14/1 63/15/1 64/16/1
f 62/21/1 65/22/1 66/23/1 63/24/1
f 67/13/1 68/14/1 69/15/1 70/16/1
f 68/21/1 71/22/1 72/23/1 69/24/1
f 73/13/1 74/14/1 75/15/1 76/16/1
f 74/21/1 77/22/1 78/23/1 75/24/1
f 79/25/1 80/26/1 48/27/1 47/28/1
f 80/25/1 81/26/1 51/27/1 48/28/1
f 82/25/1 83/26/1 80/27/1 79/28/1
f 83/25/1 84/26/1 81/27/1 80/28/1
f 85/25/1 86/26/1 83/27/1 82/28/1
f 86/25/1 87/26/1 84/27/1 83/28/1
f 88/25/1 89/26/1 86/27/1 85/28/1
f 89/25/1 90/26/1 87/27/1 86/28/1

