# Wavefront OBJ file automatically generated by Tiled2Unity

# Vertices (Count = 46)
v -1280 -2176 0
v -1408 -2176 0
v -1408 -2048 0
v -1280 -2048 0
v -1152 -2304 0
v -1280 -2304 0
v -1152 -2176 0
v -1408 -2304 0
v -1024 -2432 0
v -1152 -2432 0
v -1024 -2304 0
v -1280 -2432 0
v -640 -2560 0
v -768 -2560 0
v -768 -2432 0
v -640 -2432 0
v -896 -2560 0
v -1024 -2560 0
v -896 -2432 0
v -1152 -2560 0
v -640 -2688 0
v -768 -2688 0
v 0 -2816 0
v -128 -2816 0
v -128 -2688 0
v 0 -2688 0
v -256 -2816 0
v -256 -2688 0
v -640 -2816 0
v -768 -2816 0
v -640 -2944 0
v -768 -2944 0
v -640 -3072 0
v -768 -3072 0
v 0 -3200 0
v -128 -3200 0
v -128 -3072 0
v 0 -3072 0
v -256 -3200 0
v -256 -3072 0
v -384 -3200 0
v -384 -3072 0
v -512 -3200 0
v -512 -3072 0
v -640 -3200 0
v -768 -3200 0

# Texture cooridinates (Count = 28)
vt 0.2501221 0.5001221
vt 0.3748779 0.5001221
vt 0.3748779 0.5623779
vt 0.2501221 0.5623779
vt 0.2501221 0.1251221
vt 0.3748779 0.1251221
vt 0.3748779 0.1873779
vt 0.2501221 0.1873779
vt 0.3751221 0.6876221
vt 0.4998779 0.6876221
vt 0.4998779 0.7498779
vt 0.3751221 0.7498779
vt 0.3751221 0.8126221
vt 0.4998779 0.8126221
vt 0.4998779 0.8748779
vt 0.3751221 0.8748779
vt 0.3751221 0.8751221
vt 0.4998779 0.8751221
vt 0.4998779 0.9373779
vt 0.3751221 0.9373779
vt 0.3751221 0.9376221
vt 0.4998779 0.9376221
vt 0.4998779 0.9998779
vt 0.3751221 0.9998779
vt 0.2501221 0.6251221
vt 0.3748779 0.6251221
vt 0.3748779 0.6873779
vt 0.2501221 0.6873779

# Normal
vn 0 0 -1

# Groups (Count = 2)

g mesh_0001
f 1/1/1 2/2/1 3/3/1 4/4/1
f 5/1/1 6/2/1 1/3/1 7/4/1
f 6/5/1 8/6/1 2/7/1 1/8/1
f 9/1/1 10/2/1 5/3/1 11/4/1
f 10/5/1 12/6/1 6/7/1 5/8/1
f 13/9/1 14/10/1 15/11/1 16/12/1
f 17/1/1 18/2/1 9/3/1 19/4/1
f 18/5/1 20/6/1 10/7/1 9/8/1
f 21/9/1 22/10/1 14/11/1 13/12/1
f 23/13/1 24/14/1 25/15/1 26/16/1
f 24/17/1 27/18/1 28/19/1 25/20/1
f 29/9/1 30/10/1 22/11/1 21/12/1
f 31/9/1 32/10/1 30/11/1 29/12/1
f 33/9/1 34/10/1 32/11/1 31/12/1
f 35/21/1 36/22/1 37/23/1 38/24/1
f 36/25/1 39/26/1 40/27/1 37/28/1
f 39/25/1 41/26/1 42/27/1 40/28/1
f 41/25/1 43/26/1 44/27/1 42/28/1
f 43/25/1 45/26/1 33/27/1 44/28/1
f 45/9/1 46/10/1 34/11/1 33/12/1

