# Wavefront OBJ file automatically generated by Tiled2Unity

# Vertices (Count = 221)
v -1260 -70 0
v -1330 -70 0
v -1330 0 0
v -1260 0 0
v -1190 -140 0
v -1260 -140 0
v -1190 -70 0
v -1330 -140 0
v -1400 -140 0
v -1400 -70 0
v -1260 -210 0
v -1330 -210 0
v -1260 -280 0
v -1330 -280 0
v -1260 -350 0
v -1330 -350 0
v -1330 -840 0
v -1400 -840 0
v -1400 -770 0
v -1330 -770 0
v -1260 -910 0
v -1330 -910 0
v -1260 -840 0
v -1400 -910 0
v -140 -980 0
v -210 -980 0
v -210 -910 0
v -140 -910 0
v -280 -980 0
v -280 -910 0
v -350 -980 0
v -350 -910 0
v -1190 -980 0
v -1260 -980 0
v -1190 -910 0
v -1330 -980 0
v -1400 -980 0
v -1120 -1050 0
v -1190 -1050 0
v -1120 -980 0
v -1260 -1050 0
v -1330 -1050 0
v -1400 -1050 0
v -140 -1120 0
v -210 -1120 0
v -210 -1050 0
v -140 -1050 0
v -280 -1120 0
v -280 -1050 0
v -1050 -1120 0
v -1120 -1120 0
v -1050 -1050 0
v -1190 -1120 0
v -1260 -1120 0
v -1330 -1120 0
v -1400 -1120 0
v 0 -1190 0
v -70 -1190 0
v -70 -1120 0
v 0 -1120 0
v -140 -1190 0
v -210 -1190 0
v -280 -1190 0
v -350 -1190 0
v -350 -1120 0
v -420 -1190 0
v -420 -1120 0
v -490 -1190 0
v -490 -1120 0
v -560 -1190 0
v -560 -1120 0
v -630 -1190 0
v -630 -1120 0
v -700 -1190 0
v -700 -1120 0
v -770 -1190 0
v -770 -1120 0
v -840 -1190 0
v -840 -1120 0
v -910 -1190 0
v -910 -1120 0
v -980 -1190 0
v -980 -1120 0
v -1050 -1190 0
v -1120 -1190 0
v -1190 -1190 0
v -1260 -1190 0
v -1330 -1190 0
v -1400 -1190 0
v 0 -1260 0
v -70 -1260 0
v -140 -1260 0
v -210 -1260 0
v -280 -1260 0
v -350 -1260 0
v -420 -1260 0
v -490 -1260 0
v -560 -1260 0
v -630 -1260 0
v -700 -1260 0
v -770 -1260 0
v -840 -1260 0
v -910 -1260 0
v -980 -1260 0
v -1050 -1260 0
v -1120 -1260 0
v -1190 -1260 0
v -1260 -1260 0
v -1330 -1260 0
v -1400 -1260 0
v 0 -1330 0
v -70 -1330 0
v -140 -1330 0
v -210 -1330 0
v -280 -1330 0
v -350 -1330 0
v -420 -1330 0
v -490 -1330 0
v -560 -1330 0
v -630 -1330 0
v -700 -1330 0
v -770 -1330 0
v -840 -1330 0
v -910 -1330 0
v -980 -1330 0
v -1050 -1330 0
v -1120 -1330 0
v -1190 -1330 0
v -1260 -1330 0
v -1330 -1330 0
v -1400 -1330 0
v -280 -140 0
v -350 -140 0
v -350 -70 0
v -280 -70 0
v -560 -210 0
v -630 -210 0
v -630 -140 0
v -560 -140 0
v -700 -210 0
v -700 -140 0
v -770 -210 0
v -770 -140 0
v -840 -210 0
v -840 -140 0
v -910 -210 0
v -910 -140 0
v -980 -210 0
v -980 -140 0
v -1190 -210 0
v -1400 -210 0
v -70 -280 0
v -140 -280 0
v -140 -210 0
v -70 -210 0
v -280 -420 0
v -350 -420 0
v -350 -350 0
v -280 -350 0
v -70 -560 0
v -140 -560 0
v -140 -490 0
v -70 -490 0
v 0 -700 0
v -70 -700 0
v -70 -630 0
v 0 -630 0
v -140 -700 0
v -140 -630 0
v -210 -700 0
v -210 -630 0
v -280 -700 0
v -280 -630 0
v -350 -700 0
v -350 -630 0
v -420 -700 0
v -420 -630 0
v -490 -700 0
v -490 -630 0
v -560 -700 0
v -560 -630 0
v -700 -700 0
v -770 -700 0
v -770 -630 0
v -700 -630 0
v -840 -700 0
v -840 -630 0
v -840 -840 0
v -910 -840 0
v -910 -770 0
v -840 -770 0
v -980 -840 0
v -980 -770 0
v -1050 -840 0
v -1050 -770 0
v -490 -1050 0
v -420 -1050 0
v -560 -1050 0
v -630 -1050 0
v -700 -1050 0
v 0 -1400 0
v -70 -1400 0
v -140 -1400 0
v -210 -1400 0
v -280 -1400 0
v -350 -1400 0
v -420 -1400 0
v -490 -1400 0
v -560 -1400 0
v -630 -1400 0
v -700 -1400 0
v -770 -1400 0
v -840 -1400 0
v -910 -1400 0
v -980 -1400 0
v -1050 -1400 0
v -1120 -1400 0
v -1190 -1400 0
v -1260 -1400 0
v -1330 -1400 0
v -1400 -1400 0

# Texture cooridinates (Count = 104)
vt 0.7090936 0.6945665
vt 0.7854359 0.6945665
vt 0.7854359 0.7691087
vt 0.7090936 0.7691087
vt 0.07889669 0.6945665
vt 0.155239 0.6945665
vt 0.155239 0.7691087
vt 0.07889669 0.7691087
vt 0.7090936 0.6176434
vt 0.7854359 0.6176434
vt 0.7854359 0.6921856
vt 0.7090936 0.6921856
vt 0.5515444 0.8484127
vt 0.6278867 0.8484127
vt 0.6278867 0.9229549
vt 0.5515444 0.9229549
vt 0.5515444 0.7714896
vt 0.6278867 0.7714896
vt 0.6278867 0.8460318
vt 0.5515444 0.8460318
vt 0.0001220703 0.0791819
vt 0.07646436 0.0791819
vt 0.07646436 0.1537241
vt 0.0001220703 0.1537241
vt 0.0001220703 0.7714896
vt 0.07646436 0.7714896
vt 0.07646436 0.8460318
vt 0.0001220703 0.8460318
vt 0.07889669 0.2330281
vt 0.155239 0.2330281
vt 0.155239 0.3075702
vt 0.07889669 0.3075702
vt 0.0001220703 0.156105
vt 0.07646436 0.156105
vt 0.07646436 0.2306472
vt 0.0001220703 0.2306472
vt 0.630319 0.002258823
vt 0.7066613 0.002258823
vt 0.7066613 0.07680101
vt 0.630319 0.07680101
vt 0.5515444 0.3099511
vt 0.6278867 0.3099511
vt 0.6278867 0.3844933
vt 0.5515444 0.3844933
vt 0.7090936 0.7714896
vt 0.7854359 0.7714896
vt 0.7854359 0.8460318
vt 0.7090936 0.8460318
vt 0.7090936 0.8484127
vt 0.7854359 0.8484127
vt 0.7854359 0.9229549
vt 0.7090936 0.9229549
vt 0.630319 0.3868742
vt 0.7066613 0.3868742
vt 0.7066613 0.4614164
vt 0.630319 0.4614164
vt 0.4727698 0.2330281
vt 0.5491121 0.2330281
vt 0.5491121 0.3075702
vt 0.4727698 0.3075702
vt 0.630319 0.2330281
vt 0.7066613 0.2330281
vt 0.7066613 0.3075702
vt 0.630319 0.3075702
vt 0.5515444 0.6945665
vt 0.6278867 0.6945665
vt 0.6278867 0.7691087
vt 0.5515444 0.7691087
vt 0.0001220703 0.2330281
vt 0.07646436 0.2330281
vt 0.07646436 0.3075702
vt 0.0001220703 0.3075702
vt 0.0001220703 0.8484127
vt 0.07646436 0.8484127
vt 0.07646436 0.9229549
vt 0.0001220703 0.9229549
vt 0.4727698 0.9253358
vt 0.5491121 0.9253358
vt 0.5491121 0.9998779
vt 0.4727698 0.9998779
vt 0.7090936 0.2330281
vt 0.7854359 0.2330281
vt 0.7854359 0.3075702
vt 0.7090936 0.3075702
vt 0.630319 0.156105
vt 0.7066613 0.156105
vt 0.7066613 0.2306472
vt 0.630319 0.2306472
vt 0.630319 0.3099511
vt 0.7066613 0.3099511
vt 0.7066613 0.3844933
vt 0.630319 0.3844933
vt 0.630319 0.5407203
vt 0.7066613 0.5407203
vt 0.7066613 0.6152626
vt 0.630319 0.6152626
vt 0.3152205 0.156105
vt 0.3915628 0.156105
vt 0.3915628 0.2306472
vt 0.3152205 0.2306472
vt 0.4727698 0.3099511
vt 0.5491121 0.3099511
vt 0.5491121 0.3844933
vt 0.4727698 0.3844933

# Normal
vn 0 0 -1

# Groups (Count = 2)

g mesh_0001
f 1/1/1 2/2/1 3/3/1 4/4/1
f 5/5/1 6/6/1 1/7/1 7/8/1
f 6/9/1 8/10/1 2/11/1 1/12/1
f 8/5/1 9/6/1 10/7/1 2/8/1
f 11/13/1 12/14/1 8/15/1 6/16/1
f 13/17/1 14/18/1 12/19/1 11/20/1
f 15/17/1 16/18/1 14/19/1 13/20/1
f 17/21/1 18/22/1 19/23/1 20/24/1
f 21/21/1 22/22/1 17/23/1 23/24/1
f 22/25/1 24/26/1 18/27/1 17/28/1
f 25/29/1 26/30/1 27/31/1 28/32/1
f 26/33/1 29/34/1 30/35/1 27/36/1
f 29/29/1 31/30/1 32/31/1 30/32/1
f 33/37/1 34/38/1 21/39/1 35/40/1
f 34/37/1 36/38/1 22/39/1 21/40/1
f 36/37/1 37/38/1 24/39/1 22/40/1
f 38/41/1 39/42/1 33/43/1 40/44/1
f 39/37/1 41/38/1 34/39/1 33/40/1
f 41/37/1 42/38/1 36/39/1 34/40/1
f 42/37/1 43/38/1 37/39/1 36/40/1
f 44/45/1 45/46/1 46/47/1 47/48/1
f 45/49/1 48/50/1 49/51/1 46/52/1
f 50/41/1 51/42/1 38/43/1 52/44/1
f 51/37/1 53/38/1 39/39/1 38/40/1
f 53/37/1 54/38/1 41/39/1 39/40/1
f 54/37/1 55/38/1 42/39/1 41/40/1
f 55/37/1 56/38/1 43/39/1 42/40/1
f 57/41/1 58/42/1 59/43/1 60/44/1
f 58/41/1 61/42/1 44/43/1 59/44/1
f 61/41/1 62/42/1 45/43/1 44/44/1
f 62/41/1 63/42/1 48/43/1 45/44/1
f 63/41/1 64/42/1 65/43/1 48/44/1
f 64/53/1 66/54/1 67/55/1 65/56/1
f 66/57/1 68/58/1 69/59/1 67/60/1
f 68/57/1 70/58/1 71/59/1 69/60/1
f 70/57/1 72/58/1 73/59/1 71/60/1
f 72/57/1 74/58/1 75/59/1 73/60/1
f 74/61/1 76/62/1 77/63/1 75/64/1
f 76/41/1 78/42/1 79/43/1 77/44/1
f 78/41/1 80/42/1 81/43/1 79/44/1
f 80/41/1 82/42/1 83/43/1 81/44/1
f 82/41/1 84/42/1 50/43/1 83/44/1
f 84/37/1 85/38/1 51/39/1 50/40/1
f 85/37/1 86/38/1 53/39/1 51/40/1
f 86/37/1 87/38/1 54/39/1 53/40/1
f 87/37/1 88/38/1 55/39/1 54/40/1
f 88/37/1 89/38/1 56/39/1 55/40/1
f 90/65/1 91/66/1 58/67/1 57/68/1
f 91/65/1 92/66/1 61/67/1 58/68/1
f 92/65/1 93/66/1 62/67/1 61/68/1
f 93/65/1 94/66/1 63/67/1 62/68/1
f 94/65/1 95/66/1 64/67/1 63/68/1
f 95/65/1 96/66/1 66/67/1 64/68/1
f 96/65/1 97/66/1 68/67/1 66/68/1
f 97/65/1 98/66/1 70/67/1 68/68/1
f 98/65/1 99/66/1 72/67/1 70/68/1
f 99/65/1 100/66/1 74/67/1 72/68/1
f 100/65/1 101/66/1 76/67/1 74/68/1
f 101/65/1 102/66/1 78/67/1 76/68/1
f 102/65/1 103/66/1 80/67/1 78/68/1
f 103/65/1 104/66/1 82/67/1 80/68/1
f 104/65/1 105/66/1 84/67/1 82/68/1
f 105/65/1 106/66/1 85/67/1 84/68/1
f 106/65/1 107/66/1 86/67/1 85/68/1
f 107/65/1 108/66/1 87/67/1 86/68/1
f 108/65/1 109/66/1 88/67/1 87/68/1
f 109/65/1 110/66/1 89/67/1 88/68/1
f 111/65/1 112/66/1 91/67/1 90/68/1
f 112/65/1 113/66/1 92/67/1 91/68/1
f 113/65/1 114/66/1 93/67/1 92/68/1
f 114/65/1 115/66/1 94/67/1 93/68/1
f 115/65/1 116/66/1 95/67/1 94/68/1
f 116/65/1 117/66/1 96/67/1 95/68/1
f 117/65/1 118/66/1 97/67/1 96/68/1
f 118/65/1 119/66/1 98/67/1 97/68/1
f 119/65/1 120/66/1 99/67/1 98/68/1
f 120/65/1 121/66/1 100/67/1 99/68/1
f 121/65/1 122/66/1 101/67/1 100/68/1
f 122/65/1 123/66/1 102/67/1 101/68/1
f 123/65/1 124/66/1 103/67/1 102/68/1
f 124/65/1 125/66/1 104/67/1 103/68/1
f 125/65/1 126/66/1 105/67/1 104/68/1
f 126/65/1 127/66/1 106/67/1 105/68/1
f 127/65/1 128/66/1 107/67/1 106/68/1
f 128/65/1 129/66/1 108/67/1 107/68/1
f 129/65/1 130/66/1 109/67/1 108/68/1
f 130/65/1 131/66/1 110/67/1 109/68/1

g mesh_0002
f 132/69/1 133/70/1 134/71/1 135/72/1
f 136/73/1 137/74/1 138/75/1 139/76/1
f 137/77/1 140/78/1 141/79/1 138/80/1
f 140/77/1 142/78/1 143/79/1 141/80/1
f 142/77/1 144/78/1 145/79/1 143/80/1
f 144/77/1 146/78/1 147/79/1 145/80/1
f 146/73/1 148/74/1 149/75/1 147/76/1
f 150/81/1 11/82/1 6/83/1 5/84/1
f 11/81/1 12/82/1 8/83/1 6/84/1
f 12/81/1 151/82/1 9/83/1 8/84/1
f 152/69/1 153/70/1 154/71/1 155/72/1
f 156/69/1 157/70/1 158/71/1 159/72/1
f 160/69/1 161/70/1 162/71/1 163/72/1
f 164/85/1 165/86/1 166/87/1 167/88/1
f 165/41/1 168/42/1 169/43/1 166/44/1
f 168/41/1 170/42/1 171/43/1 169/44/1
f 170/41/1 172/42/1 173/43/1 171/44/1
f 172/41/1 174/42/1 175/43/1 173/44/1
f 174/41/1 176/42/1 177/43/1 175/44/1
f 176/41/1 178/42/1 179/43/1 177/44/1
f 178/89/1 180/90/1 181/91/1 179/92/1
f 182/85/1 183/86/1 184/87/1 185/88/1
f 183/89/1 186/90/1 187/91/1 184/92/1
f 188/85/1 189/86/1 190/87/1 191/88/1
f 189/41/1 192/42/1 193/43/1 190/44/1
f 192/89/1 194/90/1 195/91/1 193/92/1
f 33/93/1 34/94/1 21/95/1 35/96/1
f 34/93/1 36/94/1 22/95/1 21/96/1
f 36/93/1 37/94/1 24/95/1 22/96/1
f 67/97/1 69/98/1 196/99/1 197/100/1
f 69/97/1 71/98/1 198/99/1 196/100/1
f 71/97/1 73/98/1 199/99/1 198/100/1
f 73/97/1 75/98/1 200/99/1 199/100/1
f 57/101/1 58/102/1 59/103/1 60/104/1
f 58/101/1 61/102/1 44/103/1 59/104/1
f 61/101/1 62/102/1 45/103/1 44/104/1
f 62/101/1 63/102/1 48/103/1 45/104/1
f 63/101/1 64/102/1 65/103/1 48/104/1
f 64/101/1 66/102/1 67/103/1 65/104/1
f 66/101/1 68/102/1 69/103/1 67/104/1
f 68/101/1 70/102/1 71/103/1 69/104/1
f 70/101/1 72/102/1 73/103/1 71/104/1
f 72/101/1 74/102/1 75/103/1 73/104/1
f 74/101/1 76/102/1 77/103/1 75/104/1
f 76/101/1 78/102/1 79/103/1 77/104/1
f 78/101/1 80/102/1 81/103/1 79/104/1
f 80/101/1 82/102/1 83/103/1 81/104/1
f 82/101/1 84/102/1 50/103/1 83/104/1
f 84/101/1 85/102/1 51/103/1 50/104/1
f 85/101/1 86/102/1 53/103/1 51/104/1
f 86/101/1 87/102/1 54/103/1 53/104/1
f 87/101/1 88/102/1 55/103/1 54/104/1
f 88/101/1 89/102/1 56/103/1 55/104/1
f 90/65/1 91/66/1 58/67/1 57/68/1
f 91/65/1 92/66/1 61/67/1 58/68/1
f 92/65/1 93/66/1 62/67/1 61/68/1
f 93/65/1 94/66/1 63/67/1 62/68/1
f 94/65/1 95/66/1 64/67/1 63/68/1
f 95/65/1 96/66/1 66/67/1 64/68/1
f 96/65/1 97/66/1 68/67/1 66/68/1
f 97/65/1 98/66/1 70/67/1 68/68/1
f 98/65/1 99/66/1 72/67/1 70/68/1
f 99/65/1 100/66/1 74/67/1 72/68/1
f 100/65/1 101/66/1 76/67/1 74/68/1
f 101/65/1 102/66/1 78/67/1 76/68/1
f 102/65/1 103/66/1 80/67/1 78/68/1
f 103/65/1 104/66/1 82/67/1 80/68/1
f 104/65/1 105/66/1 84/67/1 82/68/1
f 105/65/1 106/66/1 85/67/1 84/68/1
f 106/65/1 107/66/1 86/67/1 85/68/1
f 107/65/1 108/66/1 87/67/1 86/68/1
f 108/65/1 109/66/1 88/67/1 87/68/1
f 109/65/1 110/66/1 89/67/1 88/68/1
f 111/65/1 112/66/1 91/67/1 90/68/1
f 112/65/1 113/66/1 92/67/1 91/68/1
f 113/65/1 114/66/1 93/67/1 92/68/1
f 114/65/1 115/66/1 94/67/1 93/68/1
f 115/65/1 116/66/1 95/67/1 94/68/1
f 116/65/1 117/66/1 96/67/1 95/68/1
f 117/65/1 118/66/1 97/67/1 96/68/1
f 118/65/1 119/66/1 98/67/1 97/68/1
f 119/65/1 120/66/1 99/67/1 98/68/1
f 120/65/1 121/66/1 100/67/1 99/68/1
f 121/65/1 122/66/1 101/67/1 100/68/1
f 122/65/1 123/66/1 102/67/1 101/68/1
f 123/65/1 124/66/1 103/67/1 102/68/1
f 124/65/1 125/66/1 104/67/1 103/68/1
f 125/65/1 126/66/1 105/67/1 104/68/1
f 126/65/1 127/66/1 106/67/1 105/68/1
f 127/65/1 128/66/1 107/67/1 106/68/1
f 128/65/1 129/66/1 108/67/1 107/68/1
f 129/65/1 130/66/1 109/67/1 108/68/1
f 130/65/1 131/66/1 110/67/1 109/68/1
f 201/65/1 202/66/1 112/67/1 111/68/1
f 202/65/1 203/66/1 113/67/1 112/68/1
f 203/65/1 204/66/1 114/67/1 113/68/1
f 204/65/1 205/66/1 115/67/1 114/68/1
f 205/65/1 206/66/1 116/67/1 115/68/1
f 206/65/1 207/66/1 117/67/1 116/68/1
f 207/65/1 208/66/1 118/67/1 117/68/1
f 208/65/1 209/66/1 119/67/1 118/68/1
f 209/65/1 210/66/1 120/67/1 119/68/1
f 210/65/1 211/66/1 121/67/1 120/68/1
f 211/65/1 212/66/1 122/67/1 121/68/1
f 212/65/1 213/66/1 123/67/1 122/68/1
f 213/65/1 214/66/1 124/67/1 123/68/1
f 214/65/1 215/66/1 125/67/1 124/68/1
f 215/65/1 216/66/1 126/67/1 125/68/1
f 216/65/1 217/66/1 127/67/1 126/68/1
f 217/65/1 218/66/1 128/67/1 127/68/1
f 218/65/1 219/66/1 129/67/1 128/68/1
f 219/65/1 220/66/1 130/67/1 129/68/1
f 220/65/1 221/66/1 131/67/1 130/68/1

